<?xml version="1.0" standalone="no"?>
<!DOCTYPE svg PUBLIC "-//W3C//DTD SVG 1.1//EN" "http://www.w3.org/Graphics/SVG/1.1/DTD/svg11.dtd" >
<svg xmlns="http://www.w3.org/2000/svg">
<metadata>Generated by IcoMoon</metadata>
<defs>
<font id="icomoon" horiz-adv-x="1024">
<font-face units-per-em="1024" ascent="960" descent="-64" />
<missing-glyph horiz-adv-x="1024" />
<glyph unicode="&#x20;" horiz-adv-x="512" d="" />
<glyph unicode="&#xe900;" glyph-name="double2" d="M673.685 832h-431.159c-39.523 0-71.86-31.418-71.86-69.818v-488.727h71.86v488.727h431.159v69.818zM781.474 692.364h-395.229c-39.523 0-71.86-31.418-71.86-69.818v-488.726c0-38.4 32.337-69.82 71.86-69.82h395.229c39.522 0 71.859 31.42 71.859 69.82v488.726c0 38.4-32.337 69.818-71.859 69.818zM781.474 133.82h-395.229v488.726h395.229v-488.726z" />
<glyph unicode="&#xe901;" glyph-name="drop" d="M512 789.333c0 0-256-243.81-256-438.857 0-134.652 114.615-243.81 256-243.81s256 109.158 256 243.81c0 195.046-256 438.857-256 438.857zM512 192c-94.104 0-170.667 70.417-170.667 156.992 0 90.731 89.417 220.75 170.667 312.34 81.25-91.592 170.667-221.614 170.667-312.34 0-86.571-76.561-156.992-170.667-156.992z" />
<glyph unicode="&#xe902;" glyph-name="theme" d="M793.779 553.347c1.579 12.109 2.667 24.358 2.667 36.875 0 156.832-127.616 284.445-284.446 284.445-156.832 0-284.445-127.613-284.445-284.445 0-12.517 1.085-24.765 2.665-36.875-86.363-48.874-144.887-141.452-144.887-247.568 0-156.834 127.613-284.446 284.445-284.446 51.84 0 100.319 14.165 142.222 38.49 41.903-24.324 90.381-38.49 142.221-38.49 156.834 0 284.446 127.612 284.446 284.446 0 106.116-58.526 198.694-144.887 247.568zM298.667 590.222c0 117.639 95.695 213.333 213.333 213.333 117.641 0 213.333-95.695 213.333-213.333 0-3.107-0.337-6.154-0.461-9.245-22.63 5.816-46.225 9.245-70.652 9.245-51.84 0-100.318-14.167-142.221-38.49-41.903 24.323-90.382 38.49-142.222 38.49-24.427 0-48.021-3.429-70.651-9.245-0.122 3.090-0.46 6.137-0.46 9.245zM583.113 305.779c0-62.972-27.588-119.488-71.113-158.562-43.524 39.074-71.113 95.59-71.113 158.562 0 3.106 0.341 6.153 0.461 9.242 22.63-5.815 46.225-9.242 70.652-9.242s48.021 3.426 70.652 9.242c0.119-3.089 0.461-6.135 0.461-9.242zM512 376.887c-19.358 0-38.012 2.833-55.859 7.667 12.284 30.788 31.569 57.967 55.859 79.782 24.29-21.798 43.558-48.977 55.859-79.782-17.847-4.834-36.501-7.667-55.859-7.667zM391.427 414.396c-34.592 23.795-61.736 57.536-77.509 97.050 17.847 4.834 36.502 7.667 55.86 7.667 28.394 0 55.434-5.687 80.236-15.791-24.715-25.549-44.75-55.607-58.587-88.926zM573.986 503.322c24.802 10.103 51.84 15.791 80.235 15.791 19.358 0 38.012-2.833 55.859-7.667-15.77-39.497-42.914-73.237-77.508-97.050-13.837 33.318-33.869 63.377-58.586 88.926zM156.445 305.779c0 72.905 36.797 137.335 92.76 175.825 24.445-58.918 68.16-107.806 123.238-138.97-1.58-12.092-2.665-24.341-2.665-36.855 0-76.727 30.668-146.33 80.236-197.547-24.802-10.103-51.842-15.787-80.236-15.787-117.639 0-213.333 95.693-213.333 213.333zM654.221 92.446c-28.395 0-55.433 5.683-80.235 15.787 49.566 51.217 80.235 120.819 80.235 197.547 0 12.514-1.084 24.764-2.662 36.873 55.053 31.164 98.79 80.034 123.238 138.953 55.962-38.49 92.757-102.921 92.757-175.825 0-117.641-95.693-213.333-213.333-213.333z" />
<glyph unicode="&#xe903;" glyph-name="cog" d="M511.834 624.545c-98.068 0-177.851-80.16-177.851-178.687 0-98.526 79.785-178.688 177.851-178.688s177.852 80.162 177.852 178.688c0 98.527-79.782 178.687-177.852 178.687zM511.834 338.645c-58.833 0-106.711 48.102-106.711 107.213s47.878 107.213 106.711 107.213c58.867 0 106.714-48.102 106.714-107.213s-47.881-107.213-106.714-107.213zM908.147 552.639l-101.129 16.368 60.471 80.766c10.598 14.188 9.284 33.985-3.093 46.601l-101.056 102.959c-12.523 12.795-32.439 14.26-46.635 3.538l-82.628-58.324-16.009 100.064c-2.773 17.332-17.643 30.055-35.106 30.055h-142.285c-17.712 0-32.723-13.079-35.213-30.663l-16.647-101.28-82.202 60.399c-14.193 10.435-33.72 8.935-46.135-3.538l-100.663-100.779c-12.592-12.579-13.98-32.557-3.308-46.815l58.94-82.876-99.597-14.295c-17.501-2.502-30.52-17.584-30.52-35.382v-142.946c0-17.796 13.018-32.879 30.52-35.311l101.127-16.367-60.47-80.764c-10.671-14.263-9.283-34.167 3.273-46.784l100.663-101.133c12.557-12.689 32.405-13.973 46.562-3.29l82.452 59.217 14.228-100.062c2.49-17.583 17.5-30.665 35.215-30.665h142.281c17.715 0 32.725 13.043 35.217 30.558l16.29 101.598 80.388-60.753c14.229-10.722 34.039-9.361 46.562 3.29l100.663 101.133c12.557 12.617 13.943 32.559 3.273 46.78l-59.866 82.735 103.509 12.147c17.929 2.074 31.445 17.335 31.445 35.49v142.946c0 17.8-13.018 32.881-30.519 35.382zM867.563 406.153l-72.597-8.508c-26.432-3.465-48.521-21.261-56.738-44.207-10.313-23.441-7.292-50.85 8.077-71.689l41.903-55.927-56.986-57.254-55.915 42.278c-20.595 15.296-47.881 18.334-68.902 8.794-25.041-9.114-42.756-31.309-46.208-57.468l-9.813-69.363h-80.606l-9.852 68.937c-3.452 26.551-21.167 48.747-43.965 56.964-23.298 10.364-50.51 7.398-71.39-8.077l-55.668-42.099-56.983 57.25 42.080 56.179c15.188 20.621 18.211 47.996 8.75 69.227-9.106 25.156-31.16 42.991-57.233 46.421l-69.042 9.865v80.981l68.65 9.899c26.428 3.465 48.518 21.265 56.7 44.172 10.352 23.443 7.327 50.782-8.003 71.725l-41.867 55.893 57.161 57.251 57.517-42.243c20.56-15.295 47.772-18.227 68.9-8.791 25.079 9.149 42.755 31.413 46.135 57.465l9.852 69.402h81.139l11.025-68.902c3.418-26.589 21.094-48.816 44.002-57.108 23.296-10.293 50.543-7.361 71.245 8.041l55.561 41.742 57.805-58.823-42.223-56.358c-15.189-20.621-18.21-47.996-8.751-69.259 9.109-25.194 31.266-42.956 57.199-46.353l69.039-9.899 0.004-80.158z" />
<glyph unicode="&#xe904;" glyph-name="plus" d="M1024 439.817c0-47.129-38.204-85.333-85.333-85.333h-330.667v-333.151c0-47.13-38.205-85.333-85.333-85.333h-21.333c-47.128 0-85.333 38.204-85.333 85.333v333.151h-330.667c-47.128 0-85.333 38.205-85.333 85.333v14.027c0 47.129 38.205 85.333 85.333 85.333h330.667v335.489c0 47.128 38.205 85.333 85.333 85.333h21.333c47.128 0 85.333-38.205 85.333-85.333v-335.489h330.667c47.13 0 85.333-38.205 85.333-85.333v-14.027z" />
<glyph unicode="&#xe905;" glyph-name="list2" d="M832.038 746.667h-533.146c-29.445 0-53.315-24.3-53.315-54.275s23.87-54.275 53.315-54.275h533.146c29.444 0 53.312 24.3 53.312 54.275s-23.868 54.275-53.312 54.275zM192.261 692.392c-0.060 14.371-5.716 28.132-15.728 38.264-20.794 21.044-54.379 21.044-75.174 0-10.013-10.132-15.669-23.893-15.728-38.264-0.398-3.516-0.398-7.068 0-10.583 0.603-3.537 1.586-6.995 2.932-10.313 1.431-3.214 3.125-6.301 5.065-9.227 1.914-3.043 4.148-5.864 6.665-8.413 2.426-2.459 5.106-4.644 7.997-6.513 2.807-2.081 5.851-3.813 9.064-5.156 3.534-1.866 7.301-3.236 11.196-4.071 3.453-0.393 6.942-0.393 10.396 0 14.078-0.012 27.59 5.647 37.587 15.74 2.516 2.549 4.75 5.37 6.664 8.413 1.94 2.926 3.634 6.013 5.065 9.227 1.701 3.277 3.043 6.735 3.999 10.313 0.398 3.516 0.398 7.068 0 10.583zM192.263 448.154c0.396 3.516 0.396 7.066 0 10.581-0.921 3.503-2.264 6.874-3.999 10.044-1.373 3.328-3.070 6.511-5.065 9.498-1.847 3.008-4.090 5.747-6.664 8.141-20.794 21.043-54.379 21.043-75.174 0-10.013-10.133-15.669-23.893-15.728-38.263 0.103-7.155 1.458-14.229 3.999-20.898 1.336-3.209 2.942-6.298 4.798-9.225 2.028-2.953 4.35-5.679 6.931-8.141 2.356-2.615 5.045-4.898 7.997-6.784 2.807-2.086 5.85-3.819 9.064-5.158 3.25-1.391 6.651-2.394 10.13-2.987 3.41-0.777 6.901-1.143 10.396-1.084 3.454-0.405 6.943-0.405 10.396 0 3.392 0.593 6.705 1.596 9.863 2.987 3.301 1.331 6.433 3.063 9.33 5.154 2.952 1.886 5.641 4.169 7.997 6.784 2.569 2.398 4.812 5.137 6.664 8.141 2.049 2.859 3.75 5.956 5.065 9.229 1.821 3.601 3.166 7.437 3.999 11.396 0.41 3.516 0.41 7.070 0 10.586zM192.262 203.913c0.395 3.516 0.395 7.070 0 10.586-0.921 3.588-2.264 7.049-3.998 10.313-1.431 3.213-3.126 6.298-5.065 9.225-1.853 3.008-4.095 5.743-6.665 8.141-20.794 21.043-54.379 21.043-75.174 0-2.569-2.398-4.812-5.133-6.664-8.141-1.939-2.927-3.634-6.012-5.065-9.225-1.383-3.307-2.368-6.771-2.932-10.313-0.751-3.477-1.108-7.027-1.066-10.586 0.060-14.37 5.716-28.13 15.728-38.263 2.356-2.615 5.045-4.898 7.997-6.784 2.807-2.082 5.85-3.814 9.063-5.158 3.251-1.391 6.651-2.394 10.13-2.982 3.41-0.781 6.901-1.143 10.396-1.088 3.454-0.405 6.943-0.405 10.397 0 3.392 0.593 6.704 1.596 9.863 2.987 3.3 1.331 6.432 3.063 9.33 5.154 2.952 1.886 5.641 4.169 7.997 6.784 2.569 2.402 4.812 5.137 6.665 8.145 2.051 2.854 3.752 5.952 5.065 9.225 1.819 3.605 3.164 7.437 3.998 11.396 0.41 3.52 0.41 7.070 0 10.586zM885.35 502.426h-586.458c-29.445 0-53.315-24.299-53.315-54.272 0-29.978 23.87-54.276 53.315-54.276h586.458c29.444 0 53.316 24.299 53.316 54.276 0 29.973-23.872 54.272-53.316 54.272zM645.436 258.189h-346.544c-29.445 0-53.315-24.299-53.315-54.276 0-29.973 23.87-54.276 53.315-54.276h346.544c29.444 0 53.316 24.303 53.316 54.276 0 29.978-23.872 54.276-53.316 54.276z" />
<glyph unicode="&#xe906;" glyph-name="trash" d="M324.267 21.333h375.467c37.649 0 68.267 30.298 68.267 67.554v448.001h51.2c18.842 0 34.133 15.133 34.133 33.778v101.333c0 37.258-30.618 67.555-68.267 67.555h-136.533v67.556c0 37.258-30.618 67.555-68.267 67.555h-136.533c-37.65 0-68.267-30.298-68.267-67.555v-67.556h-136.533c-37.65 0-68.267-30.298-68.267-67.555v-101.333c0-18.645 15.292-33.778 34.133-33.778h51.2v-448.001c0-37.257 30.617-67.554 68.267-67.554zM699.733 88.887h-375.467v448.001h375.467v-448.001zM443.733 807.111h136.533v-67.556h-136.533v67.556zM238.9 672h546.167v-67.555h-546.15l-0.017 67.555zM597.333 156.446c18.842 0 34.133 15.13 34.133 33.775v245.333c0 18.645-15.292 33.779-34.133 33.779s-34.133-15.134-34.133-33.779v-245.333c0-18.645 15.292-33.775 34.133-33.775zM426.667 156.446c18.842 0 34.133 15.13 34.133 33.775v245.333c0 18.645-15.292 33.779-34.133 33.779s-34.133-15.134-34.133-33.779v-245.333c0-18.645 15.292-33.775 34.133-33.775z" />
<glyph unicode="&#xe907;" glyph-name="font2" d="M455.974 652.8h-199.974v93.867h512v-93.867h-199.974v-503.467h-112.051v503.467z" />
<glyph unicode="&#xe908;" glyph-name="account" d="M512-64c-282.77 0-512 229.231-512 512s229.23 512 512 512c282.769 0 512-229.23 512-512s-229.231-512-512-512zM602.509 666.51c-24.004 24.005-56.563 37.49-90.509 37.49s-66.505-13.486-90.51-37.49c-24.005-24.005-37.49-56.562-37.49-90.51s13.486-66.505 37.49-90.509c24.005-24.004 56.564-37.491 90.51-37.491s66.505 13.487 90.509 37.491c24.004 24.004 37.491 56.561 37.491 90.509s-13.487 66.505-37.491 90.51zM768 256c0 70.72-114.56 128-256 128s-256-57.28-256-128v-64h512v64z" />
<glyph unicode="&#xe909;" glyph-name="arrow-left" d="M415.521 243.153l-193.292 184.363c-11.861 11.311-11.861 29.658 0 40.969l193.292 184.364c11.862 11.313 31.092 11.313 42.953 0s11.861-29.656 0-40.97l-141.442-134.908h493.634v-57.941h-493.634l141.442-134.908c11.861-11.315 11.861-29.658 0-40.969-11.861-11.315-31.091-11.315-42.953 0z" />
<glyph unicode="&#xe90a;" glyph-name="bars" horiz-adv-x="1170" d="M91.429 960c-50.495 0-91.429-40.934-91.429-91.429s40.934-91.429 91.429-91.429h987.429c50.498 0 91.429 40.934 91.429 91.429s-40.931 91.429-91.429 91.429h-987.429zM0 448c0 50.495 40.934 91.429 91.429 91.429h987.429c50.498 0 91.429-40.934 91.429-91.429s-40.931-91.429-91.429-91.429h-987.429c-50.495 0-91.429 40.934-91.429 91.429zM0 27.429c0 50.498 40.934 91.429 91.429 91.429h987.429c50.498 0 91.429-40.931 91.429-91.429s-40.931-91.429-91.429-91.429h-987.429c-50.495 0-91.429 40.931-91.429 91.429z" />
<glyph unicode="&#xe90b;" glyph-name="button" d="M886.519 661.338h-749.037c-52.387 0-94.816-43.641-94.816-97.524v-231.621c0-53.879 42.429-97.523 94.816-97.523h749.037c52.386 0 94.814 43.644 94.814 97.523v231.621c0 53.883-42.428 97.524-94.814 97.524zM886.519 332.194h-749.037v231.621h749.037v-231.621z" />
<glyph unicode="&#xe90c;" glyph-name="checkbox" d="M810.667 832h-597.333c-46.933 0-85.333-38.4-85.333-85.333v-597.333c0-46.933 38.4-85.333 85.333-85.333h597.333c46.933 0 85.333 38.4 85.333 85.333v597.333c0 46.933-38.4 85.333-85.333 85.333zM810.667 746.667v-597.333h-597.333v597.333h597.333zM419.794 289.937c14.898-16.806 40.997-16.806 55.896 0l241.028 271.839c11.456 12.922 11.49 32.439 0.077 45.401-13.453 15.283-37.133 15.325-50.641 0.089l-218.411-246.336-90.094 101.329c-13.448 15.125-36.965 15.108-50.392-0.034-11.456-12.924-11.456-32.448 0-45.367l112.536-126.921z" />
<glyph unicode="&#xe90d;" glyph-name="design" d="M780.038-23.283l-239.999 629.99c-8.849 23.262-47.226 23.262-56.074 0l-240.002-629.99c-4.57-12.064-0.966-25.69 8.995-33.862 9.99-8.179 24.024-9.171 34.953-2.259l224.091 140.038 224.093-140.038c4.89-3.078 10.4-4.57 15.904-4.57 6.797 0 13.536 2.317 19.046 6.829 9.958 8.173 13.562 21.798 8.992 33.862zM993.997 540.010h-40.435c-26.298 128.29-107.245 236.702-217.843 299.994h113.805c12.429-34.844 45.414-59.998 84.474-59.998 49.632 0 90.003 40.372 90.003 89.998s-40.371 89.996-90.003 89.996c-39.059 0-72.045-25.156-84.474-59.998h-247.523v29.998c0 16.582-13.418 30-30.001 30h-120.001c-16.582 0-30.001-13.418-30.001-30v-30h-247.524c-12.426 34.844-45.413 60-84.474 60-49.627 0-90-40.37-90-89.998s40.371-89.998 90-89.998c39.059 0 72.048 25.156 84.474 59.998h115.805c-110.597-63.29-193.543-171.702-219.839-299.992h-40.439c-16.582 0-30.001-13.418-30.001-30.001v-119.996c0-16.582 13.418-30 30.001-30h119.999c16.582 0 30.001 13.418 30.001 30v119.996c0 16.582-13.418 30.001-30.001 30.001h-18.212c33.913 142.27 147.942 254.294 290.213 288.206v-18.212c0-16.582 13.418-30 30.001-30h119.999c16.582 0 30.001 13.418 30.001 30v18.212c142.275-33.912 256.304-145.936 290.211-288.204h-18.214c-16.582 0-29.997-13.418-29.997-30v-119.997c0-16.582 13.414-30 29.997-30h120c16.582 0 30.003 13.418 30.003 30v119.997c0 16.582-13.421 29.998-30.003 29.998z" />
<glyph unicode="&#xe90e;" glyph-name="double" d="M433.459 181.333c-81.795 0-148.368 67.806-148.368 151.113v364.441h-61.089c-52.958 0-96.003-43.834-96.003-97.773v-480.001c0-53.939 43.044-97.779 96.003-97.779h436.362c52.958 0 96 43.84 96 97.779v62.221h-322.906zM896 776.887c0 54.010-42.974 97.78-95.996 97.78h-366.545c-53.030 0-96.004-43.77-96.004-97.78v-444.441c0-54.012 42.974-97.779 96.004-97.779h366.545c53.022 0 95.996 43.767 95.996 97.779v444.441z" />
<glyph unicode="&#xe90f;" glyph-name="formula" horiz-adv-x="960" d="M586.813 482.133v102.401c0 9.44-7.72 17.068-17.233 17.068h-120.627v136.532c0 48.332 35.913 86.205 81.749 86.205 48.25 0 90.572-40.278 90.572-86.205 0-9.44 7.719-17.068 17.233-17.068h103.394c9.517 0 17.235 7.628 17.235 17.068 0 120.266-104.602 221.866-228.429 221.866-121.089 0-219.604-99.535-219.604-221.866v-136.532h-120.626c-9.514 0-17.233-7.628-17.233-17.068v-102.401c0-9.44 7.719-17.068 17.233-17.068h120.626v-307.197c0-46.253-39.462-85.338-86.16-85.338s-86.161 39.085-86.161 85.338c0 9.44-7.719 17.062-17.233 17.062h-103.393c-9.514 0-17.233-7.622-17.233-17.062 0-122.336 100.5-221.869 224.016-221.869s224.015 99.533 224.015 221.869v307.197h120.627c9.514 0 17.233 7.628 17.233 17.068zM819.264 106.662l58.086 57.536c26.093 25.837 26.093 67.891 0 93.709-26.099 25.843-68.544 25.843-94.637 0l-58.093-57.51-58.086 57.51c-26.093 25.843-68.55 25.843-94.641 0-26.092-25.837-26.092-67.891 0-93.709l58.090-57.536-58.090-57.53c-26.092-25.843-26.092-67.891 0-93.715 13.046-12.922 30.173-19.392 47.318-19.392 17.128 0 34.274 6.47 47.317 19.392l58.093 57.51 58.086-57.51c26.093-25.843 68.57-25.843 94.643 0 26.093 25.837 26.093 67.891 0 93.715l-58.086 57.53z" />
<glyph unicode="&#xe910;" glyph-name="html" d="M329.907 247.159l-287.241 157.615v87.3l287.241 156.724v-102.538l-200.154-96.742 200.154-100.39v-101.969zM378.978 192l190.49 512h60.177l-190.929-512h-59.738zM694.093 247.159v101.973l200.115 99.575-200.115 98.811v101.322l287.241-156.929v-86.771l-287.241-157.982z" />
<glyph unicode="&#xe911;" glyph-name="image" d="M605.154 434.487l-130.368-167.821-93.157 111.881-130.369-167.586h521.48l-167.586 223.526zM843.853 874.667h-663.704c-52.387 0-94.816-42.429-94.816-94.816v-663.704c0-52.386 42.429-94.814 94.816-94.814h663.704c52.386 0 94.814 42.428 94.814 94.814v663.704c0 52.387-42.428 94.816-94.814 94.816zM843.853 116.147h-663.704v663.704h663.704v-663.704z" />
<glyph unicode="&#xe912;" glyph-name="input" d="M938.667 640c0 38.4-25.6 64-64 64h-725.333c-38.4 0-64-25.6-64-64v-384c0-38.4 25.6-64 64-64h725.333c38.4 0 64 25.6 64 64v384zM874.667 256h-725.333v384h725.333v-384zM682.667 746.667h85.333v-597.333h-85.333v597.333zM320.747 328.725c-4.007-2.91-8.973-5.133-14.897-6.673-5.75-1.37-11.848-2.052-18.295-2.052-16.726 0-29.706 4.19-38.941 12.574-9.060 8.384-13.59 20.702-13.59 36.958v56.717h-21.692v30.797h21.692v33.621h40.77v-33.621h35.021v-30.797h-35.021v-56.205c0-5.815 1.481-10.351 4.443-13.602 3.136-3.076 7.492-4.617 13.067-4.617 6.447 0 11.935 1.711 16.465 5.133l10.976-28.233zM479.036 390.575c0-0.512-0.26-4.105-0.785-10.778h-106.368c1.917-8.555 6.447-15.313 13.59-20.275s16.029-7.441 26.657-7.441c7.318 0 13.764 1.024 19.341 3.081 5.747 2.223 11.063 5.645 15.94 10.266l21.692-23.1c-13.239-14.886-32.58-22.327-58.018-22.327-15.855 0-29.881 2.995-42.077 8.981-12.196 6.161-21.605 14.63-28.225 25.408s-9.932 23.014-9.932 36.702c0 13.517 3.223 25.664 9.67 36.442 6.621 10.948 15.594 19.418 26.919 25.408 11.5 6.161 24.305 9.237 38.418 9.237 13.765 0 26.223-2.906 37.372-8.725 11.153-5.815 19.861-14.199 26.138-25.152 6.443-10.778 9.668-23.351 9.668-37.726zM406.119 431.898c-9.234 0-16.988-2.569-23.26-7.701s-10.105-12.147-11.499-21.043h69.259c-1.395 8.725-5.227 15.654-11.503 20.787-6.27 5.303-13.937 7.957-22.996 7.957zM593.741 322.052l-30.839 42.347-31.885-42.347h-44.429l54.101 69.551-52.271 68.523h45.734l29.794-40.294 30.579 40.294h43.383l-52.271-67.494 54.362-70.579h-46.259z" />
<glyph unicode="&#xe913;" glyph-name="list" d="M832.038 746.667h-533.146c-29.445 0-53.315-24.3-53.315-54.275s23.87-54.275 53.315-54.275h533.146c29.444 0 53.312 24.3 53.312 54.275s-23.868 54.275-53.312 54.275zM192.261 692.392c-0.060 14.371-5.716 28.132-15.728 38.264-20.794 21.044-54.379 21.044-75.174 0-10.013-10.132-15.669-23.893-15.728-38.264-0.398-3.516-0.398-7.068 0-10.583 0.603-3.537 1.586-6.995 2.932-10.313 1.431-3.214 3.125-6.301 5.065-9.227 1.914-3.043 4.148-5.864 6.665-8.413 2.426-2.459 5.106-4.644 7.997-6.513 2.807-2.081 5.851-3.813 9.064-5.156 3.534-1.866 7.301-3.236 11.196-4.071 3.453-0.393 6.942-0.393 10.396 0 14.078-0.012 27.59 5.647 37.587 15.74 2.516 2.549 4.75 5.37 6.664 8.413 1.94 2.926 3.634 6.013 5.065 9.227 1.701 3.277 3.043 6.735 3.999 10.313 0.398 3.516 0.398 7.068 0 10.583zM192.263 448.154c0.396 3.516 0.396 7.066 0 10.581-0.921 3.503-2.264 6.874-3.999 10.044-1.373 3.328-3.070 6.511-5.065 9.498-1.847 3.008-4.090 5.747-6.664 8.141-20.794 21.043-54.379 21.043-75.174 0-10.013-10.133-15.669-23.893-15.728-38.263 0.103-7.155 1.458-14.229 3.999-20.898 1.336-3.209 2.942-6.298 4.798-9.225 2.028-2.953 4.35-5.679 6.931-8.141 2.356-2.615 5.045-4.898 7.997-6.784 2.807-2.086 5.85-3.819 9.064-5.158 3.25-1.391 6.651-2.394 10.13-2.987 3.41-0.777 6.901-1.143 10.396-1.084 3.454-0.405 6.943-0.405 10.396 0 3.392 0.593 6.705 1.596 9.863 2.987 3.301 1.331 6.433 3.063 9.33 5.154 2.952 1.886 5.641 4.169 7.997 6.784 2.569 2.398 4.812 5.137 6.664 8.141 2.049 2.859 3.75 5.956 5.065 9.229 1.821 3.601 3.166 7.437 3.999 11.396 0.41 3.516 0.41 7.070 0 10.586zM192.262 203.913c0.395 3.516 0.395 7.070 0 10.586-0.921 3.588-2.264 7.049-3.998 10.313-1.431 3.213-3.126 6.298-5.065 9.225-1.853 3.008-4.095 5.743-6.665 8.141-20.794 21.043-54.379 21.043-75.174 0-2.569-2.398-4.812-5.133-6.664-8.141-1.939-2.927-3.634-6.012-5.065-9.225-1.383-3.307-2.368-6.771-2.932-10.313-0.751-3.477-1.108-7.027-1.066-10.586 0.060-14.37 5.716-28.13 15.728-38.263 2.356-2.615 5.045-4.898 7.997-6.784 2.807-2.082 5.85-3.814 9.063-5.158 3.251-1.391 6.651-2.394 10.13-2.982 3.41-0.781 6.901-1.143 10.396-1.088 3.454-0.405 6.943-0.405 10.397 0 3.392 0.593 6.704 1.596 9.863 2.987 3.3 1.331 6.432 3.063 9.33 5.154 2.952 1.886 5.641 4.169 7.997 6.784 2.569 2.402 4.812 5.137 6.665 8.145 2.051 2.854 3.752 5.952 5.065 9.225 1.819 3.605 3.164 7.437 3.998 11.396 0.41 3.52 0.41 7.070 0 10.586zM885.35 502.426h-586.458c-29.445 0-53.315-24.299-53.315-54.272 0-29.978 23.87-54.276 53.315-54.276h586.458c29.444 0 53.316 24.299 53.316 54.276 0 29.973-23.872 54.272-53.316 54.272zM645.436 258.189h-346.544c-29.445 0-53.315-24.299-53.315-54.276 0-29.973 23.87-54.276 53.315-54.276h346.544c29.444 0 53.316 24.303 53.316 54.276 0 29.978-23.872 54.276-53.316 54.276z" />
<glyph unicode="&#xe914;" glyph-name="move" d="M636.143 523.921c5.892-5.824 15.437-5.82 21.329 0.004l72.427 71.666 65.877-65.616c4.766-4.719 11.789-6.417 18.223-4.433 6.434 2.001 11.217 7.351 12.412 13.917l-16.004 188.297c0.943 5.201-0.742 10.517-4.531 14.233-3.772 3.732-9.161 5.366-14.4 4.4l-189.099 15.517c-6.618-1.233-11.994-5.968-13.978-12.332-1.988-6.352-0.252-13.285 4.497-17.984l65.856-65.616-72.461-71.674c-5.897-5.832-5.892-15.292 0.004-21.122l49.847-49.257zM387.854 372.066c-5.893 5.824-15.44 5.824-21.33-0.004l-72.423-71.667-65.876 65.617c-4.769 4.719-11.79 6.417-18.224 4.437-6.436-2.001-11.217-7.351-12.416-13.918l16.005-188.301c-0.941-5.197 0.743-10.513 4.531-14.229 3.773-3.733 9.164-5.367 14.402-4.399l189.098-15.518c6.619 1.233 11.991 5.969 13.979 12.335 1.988 6.349 0.252 13.282-4.497 17.98l-65.858 65.617 72.54 71.561c5.909 5.828 5.914 15.3 0.009 21.137l-49.94 49.353zM197.583 539.441c1.195-6.568 5.978-11.914 12.413-13.915 6.435-1.984 13.457-0.286 18.224 4.433l65.877 65.614 72.426-71.664c5.888-5.828 15.436-5.833 21.329-0.009l49.844 49.259c5.901 5.83 5.905 15.29 0.009 21.122l-72.463 71.674 65.858 65.616c4.753 4.699 6.485 11.632 4.497 17.984-1.988 6.364-7.36 11.099-13.978 12.332l-189.097-15.517c-5.239 0.966-10.629-0.667-14.403-4.4-3.788-3.715-5.475-9.032-4.53-14.233l-16.005-188.296zM826.406 356.531c-1.195 6.566-5.978 11.913-12.412 13.918-6.434 1.98-13.457 0.282-18.227-4.437l-65.873-65.613-72.427 71.663c-5.888 5.828-15.437 5.828-21.329 0.009l-49.937-49.357c-5.905-5.837-5.901-15.309 0.009-21.137l72.538-71.561-65.856-65.617c-4.753-4.698-6.485-11.631-4.501-17.98 1.993-6.366 7.36-11.102 13.982-12.335l189.099 15.518c5.235-0.969 10.628 0.666 14.4 4.399 3.789 3.716 5.474 9.033 4.531 14.229l16.004 188.301z" />
<glyph unicode="&#xe915;" glyph-name="radio" d="M512 874.667c-235.52 0-426.667-191.147-426.667-426.667s191.147-426.667 426.667-426.667c235.52 0 426.667 191.147 426.667 426.667s-191.147 426.667-426.667 426.667zM512 106.667c-188.587 0-341.333 152.747-341.333 341.333s152.747 341.333 341.333 341.333c188.587 0 341.333-152.747 341.333-341.333s-152.747-341.333-341.333-341.333zM725.333 448c0-117.82-95.514-213.333-213.333-213.333s-213.333 95.514-213.333 213.333c0 117.821 95.513 213.333 213.333 213.333s213.333-95.513 213.333-213.333z" />
<glyph unicode="&#xe916;" glyph-name="slider" d="M469.333 800c-23.565 0-42.667-19.103-42.667-42.667v-128c0-23.564 19.102-42.667 42.667-42.667s42.667 19.103 42.667 42.667v8.727h282.095c32.717 0 59.238 24.312 59.238 54.303s-26.522 54.303-59.238 54.303h-282.095v10.667c0 23.564-19.102 42.667-42.667 42.667zM222.365 746.667h93.104c28.553 0 51.699-24.3 51.699-54.275s-23.147-54.275-51.699-54.275h-93.104c-28.552 0-51.699 24.3-51.699 54.275s23.147 54.275 51.699 54.275zM222.368 502.426h279.286c28.553 0 51.699-24.299 51.699-54.272 0-29.978-23.147-54.276-51.699-54.276h-279.286c-28.552 0-51.699 24.299-51.699 54.276 0 29.973 23.147 54.272 51.699 54.272zM336.16 258.189h-113.792c-28.552 0-51.699-24.299-51.699-54.276 0-29.973 23.147-54.276 51.699-54.276h113.792c28.553 0 51.699 24.303 51.699 54.276 0 29.978-23.147 54.276-51.699 54.276zM701.606 502.302h92.489c32.713 0 59.234-24.311 59.234-54.302s-26.522-54.302-59.234-54.302h-92.489c-2.807 0-5.568 0.179-8.273 0.525v-10.223c0-23.565-19.102-42.667-42.667-42.667s-42.667 19.102-42.667 42.667v128c0 23.564 19.102 42.667 42.667 42.667s42.667-19.103 42.667-42.667v-10.223c2.705 0.346 5.466 0.525 8.273 0.525zM533.333 149.333v-10.667c0-23.565-19.102-42.667-42.667-42.667s-42.667 19.102-42.667 42.667v128c0 23.565 19.102 42.667 42.667 42.667s42.667-19.102 42.667-42.667v-8.725h260.762c32.717 0 59.238-24.316 59.238-54.306s-26.522-54.302-59.238-54.302h-260.762z" />
<glyph unicode="&#xe917;" glyph-name="text" d="M455.974 652.8h-199.974v93.867h512v-93.867h-199.974v-503.467h-112.051v503.467z" />
<glyph unicode="&#xe918;" glyph-name="arrow_right" d="M384 252.587l195.413 195.413-195.413 195.84 60.16 60.16 256-256-256-256-60.16 60.587z" />
<glyph unicode="&#xe919;" glyph-name="arrow_top" d="M707.413 289.916l-195.413 195.413-195.84-195.413-60.16 60.16 256 256.001 256-256.001-60.587-60.16z" />
<glyph unicode="&#xe91a;" glyph-name="times" d="M810.667 686.933l-59.733 59.733-238.933-238.933-238.933 238.933-59.733-59.733 238.933-238.933-238.933-238.933 59.733-59.733 238.933 238.933 238.933-238.933 59.733 59.733-238.933 238.933 238.933 238.933z" />
<glyph unicode="&#xe91b;" glyph-name="preview" d="M120.889 601.6c19.627 0 35.555 15.258 35.555 34.133v51.2c0 18.842 15.965 34.133 35.556 34.133h53.333c19.627 0 35.555 15.258 35.555 34.133s-15.929 34.133-35.555 34.133h-53.333c-58.809 0-106.667-45.943-106.667-102.4v-51.2c0-18.876 15.929-34.133 35.556-34.133zM832 789.333h-53.333c-19.627 0-35.558-15.258-35.558-34.133s15.932-34.133 35.558-34.133h53.333c19.593 0 35.554-15.292 35.554-34.133v-51.2c0-18.876 15.932-34.133 35.558-34.133s35.554 15.258 35.554 34.133v51.2c0 56.457-47.859 102.4-106.667 102.4zM85.333 209.067c0-56.457 47.858-102.4 106.667-102.4h53.333c19.627 0 35.555 15.258 35.555 34.133s-15.929 34.133-35.555 34.133h-53.333c-19.591 0-35.556 15.292-35.556 34.133v51.2c0 18.876-15.929 34.133-35.555 34.133s-35.556-15.258-35.556-34.133v-51.2zM903.113 294.4c-19.627 0-35.558-15.258-35.558-34.133v-51.2c0-18.842-15.962-34.133-35.554-34.133h-53.333c-19.627 0-35.558-15.258-35.558-34.133s15.932-34.133 35.558-34.133h53.333c58.807 0 106.667 45.943 106.667 102.4v51.2c0 18.876-15.927 34.133-35.554 34.133zM511.962 240.811c136.887 0 253.513 82.603 283.733 201.050 1.067 4.096 1.067 8.192 0 12.288-30.221 118.441-146.846 201.044-283.733 201.044-136.89 0-253.512-82.603-283.734-201.044-1.067-4.096-1.067-8.192 0-12.288 30.222-118.447 146.845-201.050 283.734-201.050zM511.962 550.403c58.667 0 106.667-46.078 106.667-102.398 0-56.324-48-102.404-106.667-102.404s-106.667 46.080-106.667 102.404c0 56.32 48 102.398 106.667 102.398z" />
<glyph unicode="&#xe91c;" glyph-name="constructor" d="M918.336 654.004l-393.148 175.177c-8.444 3.758-17.98 3.758-26.415 0l-393.146-175.177c-12.33-5.488-20.305-18.087-20.293-32.020 0.022-13.932 8.042-26.509 20.372-31.973l393.149-174.016c4.198-1.856 8.666-2.782 13.133-2.782s8.947 0.926 13.124 2.782l393.148 174.018c12.339 5.453 20.361 18.041 20.369 31.973 0.013 13.92-7.962 26.532-20.292 32.018zM511.987 485.833l-307.917 136.292 307.917 137.206 307.917-137.206-307.917-136.292zM935.94 287.706c-7.292 17.668-27.029 25.847-43.994 18.261l-379.947-169.297-379.945 169.297c-17.033 7.607-36.701-0.606-43.995-18.261-7.305-17.655 0.57-38.123 17.58-45.696l393.146-175.189c4.224-1.882 8.725-2.82 13.214-2.82s8.994 0.943 13.214 2.82l393.148 175.189c16.998 7.578 24.87 28.041 17.579 45.696zM892.019 480.017c17.011 7.526 36.689-0.7 43.959-18.368 7.249-17.69-0.67-38.131-17.69-45.658l-393.148-174.020c-4.19-1.856-8.666-2.782-13.137-2.782-4.467 0-8.934 0.926-13.133 2.782l-393.148 174.016c-17.021 7.531-24.94 27.972-17.68 45.662 7.25 17.668 26.928 25.907 43.962 18.368l379.999-168.205 380.015 168.205zM523.989 716.679c-7.313 3.056-15.343 3.004-22.626-0.149l-139.028-60.187c-28.174-12.197-27.945-57.935 0.35-69.76l137.326-57.396c7.313-3.055 15.343-3.004 22.626 0.149l139.029 60.189c28.173 12.197 27.942 57.935-0.35 69.76l-137.327 57.394z" />
<glyph unicode="&#xe91d;" glyph-name="save" d="M927.561 639.12c-7.407 17.77-16.303 31.848-26.679 42.216l-155.554 155.558c-10.364 10.362-24.444 19.254-42.219 26.666-17.771 7.404-34.069 11.107-48.883 11.107h-515.562c-14.81 0-27.406-5.182-37.778-15.553-10.371-10.366-15.552-22.959-15.552-37.777v-746.669c0-14.822 5.18-27.418 15.552-37.786 10.372-10.359 22.967-15.548 37.778-15.548h746.679c14.822 0 27.413 5.188 37.781 15.548 10.364 10.368 15.543 22.963 15.543 37.786v515.555c0 14.82-3.699 31.115-11.106 48.898zM440.892 785.785c0 4.814 1.762 8.972 5.282 12.498 3.516 3.511 7.684 5.269 12.497 5.269h106.675c4.8 0 8.969-1.755 12.484-5.269 3.529-3.526 5.286-7.684 5.286-12.498v-177.779c0-4.822-1.771-8.986-5.286-12.506-3.516-3.508-7.684-5.269-12.484-5.269h-106.675c-4.813 0-8.981 1.755-12.497 5.269-3.52 3.526-5.282 7.684-5.282 12.506v177.779zM725.346 92.442h-426.683v213.338h426.683v-213.338zM867.58 92.442h-71.125l-0.013 231.117c0 14.822-5.184 27.409-15.552 37.786-10.368 10.368-22.959 15.552-37.769 15.552h-462.234c-14.816 0-27.412-5.184-37.784-15.552-10.365-10.368-15.552-22.963-15.552-37.786v-231.117h-71.113v711.119h71.111v-231.114c0-14.818 5.18-27.406 15.552-37.777 10.371-10.364 22.967-15.552 37.783-15.552h320.015c14.81 0 27.418 5.188 37.769 15.552 10.364 10.366 15.556 22.959 15.556 37.777v231.114c5.555 0 12.77-1.849 21.67-5.552 8.896-3.701 15.189-7.404 18.893-11.107l156.126-156.118c3.699-3.703 7.403-10.099 11.106-19.169 3.712-9.077 5.559-16.209 5.559-21.393v-497.78z" />
<glyph unicode="&#xe91e;" glyph-name="bars-xs" d="M224 746.667c-29.455 0-53.333-23.878-53.333-53.333s23.878-53.333 53.333-53.333h576c29.457 0 53.333 23.878 53.333 53.333s-23.876 53.333-53.333 53.333h-576zM170.667 448c0 29.457 23.878 53.333 53.333 53.333h576c29.457 0 53.333-23.876 53.333-53.333s-23.876-53.333-53.333-53.333h-576c-29.455 0-53.333 23.876-53.333 53.333zM170.667 202.667c0 29.457 23.878 53.333 53.333 53.333h576c29.457 0 53.333-23.876 53.333-53.333s-23.876-53.333-53.333-53.333h-576c-29.455 0-53.333 23.876-53.333 53.333z" />
<glyph unicode="&#xe91f;" glyph-name="caret_down" d="M341.333 533.333l170.667-170.667 170.667 170.667h-341.333z" />
<glyph unicode="&#xe920;" glyph-name="times2" d="M1024 857.6l-102.4 102.4-409.6-409.6-409.6 409.6-102.4-102.4 409.6-409.6-409.6-409.6 102.4-102.4 409.6 409.6 409.6-409.6 102.4 102.4-409.6 409.6 409.6 409.6z" />
<glyph unicode="&#xe921;" glyph-name="text-anchor" d="M452.779 327.518c-92.137 65.156-109.69 212.244-29.254 300.876 0.087 0.095 0.171 0.192 0.255 0.289 0.061 0.071 0.123 0.143 0.186 0.214l112.942 122.765c71.863 78.111 190.067 78.754 262.673 1.428 71.147-75.771 71.744-200.39 1.327-276.929l-110.229-119.821c-0.738-0.802-2.010-0.081-1.788 1.015 7.991 39.236 5.060 91.162-6.865 127.991-1.122 3.465-0.346 7.292 2.052 9.916l51.793 56.723c34.074 37.037 33.498 97.031-1.28 133.32-34.428 36.666-90.479 36.361-124.553-0.678l-85.508-92.943 0.145-0.052c-3.759-4.199-7.706-8.454-11.708-12.764-20.301-21.873-41.941-45.19-46.741-69.952l-0.013 0.004c-4.996-23.155-1.783-45.572 7.646-65.57l0.009 0.004c7.872-16.060 21.858-31.266 35.913-39.373 3.686-2.129 5.056-7.066 2.859-10.871-14.37-24.862-30.78-44.416-50.176-64.602-2.607-2.714-6.647-3.14-9.685-0.99zM629.568 310.626l0.209 0.094c22.494 43.81 26.923 94.054 16.38 143.031l-0.047-0.051-0.051 0.026c-10.014 43.622-37.483 86.943-74.786 113.614-3.209 2.294-8.337 2.029-11.341-0.56-18.897-16.273-37.393-37.137-49.6-63.77-1.916-4.177-0.482-9.199 3.294-11.537 14.165-8.755 26.957-21.581 35.524-38.601l0.013 0.009c6.673-12.023 13.252-34.842 8.99-59.358h-0.009c-3.541-28.962-28.399-55.791-51.106-80.299-2.773-2.999-5.521-5.961-8.188-8.887l0.009-0.013c-10.458-11.388-29.956-32.576-48.414-52.634-14.464-15.714-28.29-30.733-36.629-39.808-34.074-37.035-90.407-37.649-125.184-1.361-34.777 36.292-35.352 96.286-1.278 133.321l51.945 56.892c2.354 2.577 3.155 6.327 2.108 9.745-11.534 37.692-14.694 88.448-7.414 127.638 0.203 1.093-1.059 1.79-1.792 0.995l-108.572-118.013c-71.139-77.329-70.536-203.226 1.342-279.774 72.603-75.759 190.208-74.479 261.343 2.842 7.194 8.567 21.248 23.475 37.879 41.109 40.516 42.97 96.316 102.144 105.374 125.35z" />
<glyph unicode="&#xe922;" glyph-name="text-italic" d="M725.333 789.333h-256v-40.157h39.202l-128-602.352h-39.202v-40.158h256v40.158h-49.886l128 602.352h49.886v40.157z" />
<glyph unicode="&#xe923;" glyph-name="text-bold" d="M700.079 459.947c34.56-10.807 61.628-29.013 81.212-54.613 19.584-25.033 29.376-56.034 29.376-93.013 0-52.339-20.736-92.727-62.204-121.173-40.896-27.874-100.8-41.813-179.708-41.813h-312.755v597.333h295.475c73.728 0 130.172-13.938 169.34-41.813 39.74-27.875 59.614-65.707 59.614-113.493 0-29.013-7.202-54.898-21.602-77.653-13.82-22.754-33.404-40.674-58.748-53.76zM395.098 642.56v-140.8h139.097c34.56 0 60.766 5.973 78.622 17.92s26.786 29.582 26.786 52.907c0 23.325-8.93 40.675-26.786 52.053-17.856 11.947-44.062 17.92-78.622 17.92h-139.097zM558.387 253.44c36.864 0 64.512 5.973 82.944 17.92 19.004 11.947 28.51 30.434 28.51 55.467 0 49.493-37.15 74.24-111.454 74.24h-163.289v-147.627h163.289z" />
<glyph unicode="&#xe924;" glyph-name="text-right" d="M435.268 593.227h401.655c32.627 0 59.076-23.162 59.076-51.733 0-28.573-26.449-51.732-59.076-51.732h-401.655c-32.629 0-59.078 23.159-59.078 51.732 0 28.571 26.449 51.733 59.078 51.733zM187.077 401.681h649.847c32.627 0 59.076-23.164 59.076-51.733 0-28.574-26.449-51.733-59.076-51.733h-649.847c-32.627 0-59.077 23.159-59.077 51.733 0 28.57 26.45 51.733 59.077 51.733zM452.924 210.133h384c32.627 0 59.076-23.164 59.076-51.733s-26.449-51.733-59.076-51.733h-384c-32.628 0-59.078 23.164-59.078 51.733s26.45 51.733 59.078 51.733zM187.077 789.333h649.847c32.627 0 59.076-23.162 59.076-51.733s-26.449-51.732-59.076-51.732h-649.847c-32.627 0-59.077 23.162-59.077 51.732s26.45 51.733 59.077 51.733z" />
<glyph unicode="&#xe925;" glyph-name="text-center" d="M716.732 593.227h-401.655c-32.627 0-59.077-23.162-59.077-51.733 0-28.573 26.45-51.732 59.077-51.732h401.655c32.627 0 59.081 23.159 59.081 51.732 0 28.571-26.453 51.733-59.081 51.733zM836.924 401.681h-649.847c-32.627 0-59.077-23.164-59.077-51.733 0-28.574 26.45-51.733 59.077-51.733h649.847c32.627 0 59.076 23.159 59.076 51.733 0 28.57-26.449 51.733-59.076 51.733zM708.924 210.133h-384.001c-32.627 0-59.077-23.164-59.077-51.733s26.45-51.733 59.077-51.733h384.001c32.627 0 59.076 23.164 59.076 51.733s-26.449 51.733-59.076 51.733zM836.924 789.333h-649.847c-32.627 0-59.077-23.162-59.077-51.733s26.45-51.732 59.077-51.732h649.847c32.627 0 59.076 23.162 59.076 51.732s-26.449 51.733-59.076 51.733z" />
<glyph unicode="&#xe926;" glyph-name="text-left" d="M588.732 593.227h-401.655c-32.627 0-59.077-23.162-59.077-51.733 0-28.573 26.45-51.732 59.077-51.732h401.655c32.627 0 59.081 23.159 59.081 51.732 0 28.571-26.453 51.733-59.081 51.733zM836.924 401.681h-649.847c-32.627 0-59.077-23.164-59.077-51.733 0-28.574 26.45-51.733 59.077-51.733h649.847c32.627 0 59.076 23.159 59.076 51.733 0 28.57-26.449 51.733-59.076 51.733zM571.076 210.133h-383.999c-32.627 0-59.077-23.164-59.077-51.733s26.45-51.733 59.077-51.733h383.999c32.627 0 59.076 23.164 59.076 51.733s-26.449 51.733-59.076 51.733zM836.924 789.333h-649.847c-32.627 0-59.077-23.162-59.077-51.733s26.45-51.732 59.077-51.732h649.847c32.627 0 59.076 23.162 59.076 51.732s-26.449 51.733-59.076 51.733z" />
<glyph unicode="&#xe927;" glyph-name="input-notext" d="M256 704h-106.667c-38.4 0-64-25.6-64-64v-384c0-38.4 25.6-64 64-64h106.667v64h-106.667v384h106.667v64zM426.667 256h448v384h-448v64h448c38.4 0 64-25.6 64-64v-384c0-38.4-25.6-64-64-64h-448v64zM298.667 746.667h85.333v-597.333h-85.333v597.333z" />
<glyph unicode="&#xe928;" glyph-name="arrow-right-angle" d="M384 252.587l195.413 195.413-195.413 195.84 60.16 60.16 256-256-256-256-60.16 60.587z" />
</font>
</defs>
</svg>
